<svg width="24" height="24" viewBox="0 0 24 24" fill="none" xmlns="http://www.w3.org/2000/svg">
<path d="M10.5 19.5H13.5C13.7762 19.5 14 19.7238 14 20C14 20.2762 13.7762 20.5 13.5 20.5H10.5C10.2239 20.5 10 20.2762 10 20C10 19.7238 10.2239 19.5 10.5 19.5ZM10.5 15.5H13.5C13.7762 15.5 14 15.7238 14 16C14 16.2762 13.7762 16.5 13.5 16.5H10.5C10.2239 16.5 10 16.2762 10 16C10 15.7238 10.2239 15.5 10.5 15.5ZM10.5 11.5H13.5C13.7762 11.5 14 11.7238 14 12C14 12.2762 13.7762 12.5 13.5 12.5H10.5C10.2239 12.5 10 12.2762 10 12C10 11.7238 10.2239 11.5 10.5 11.5Z" fill="#005EEB" stroke="#005EEB"/>
<path d="M17 19.5H20C20.2762 19.5 20.5 19.7238 20.5 20C20.5 20.2762 20.2762 20.5 20 20.5H17C16.7238 20.5 16.5 20.2762 16.5 20C16.5 19.7238 16.7238 19.5 17 19.5ZM17 15.5H20C20.2762 15.5 20.5 15.7238 20.5 16C20.5 16.2762 20.2762 16.5 20 16.5H17C16.7238 16.5 16.5 16.2762 16.5 16C16.5 15.7238 16.7238 15.5 17 15.5ZM17 11.5H20C20.2762 11.5 20.5 11.7238 20.5 12C20.5 12.2762 20.2762 12.5 20 12.5H17C16.7238 12.5 16.5 12.2762 16.5 12C16.5 11.7238 16.7238 11.5 17 11.5ZM17 7.5H20C20.2762 7.5 20.5 7.72386 20.5 8C20.5 8.27614 20.2762 8.5 20 8.5H17C16.7238 8.5 16.5 8.27614 16.5 8C16.5 7.72386 16.7238 7.5 17 7.5Z" fill="#005EEB" stroke="#005EEB"/>
<path d="M4 19.5H7C7.27614 19.5 7.5 19.7238 7.5 20C7.5 20.2762 7.27614 20.5 7 20.5H4C3.72386 20.5 3.5 20.2762 3.5 20C3.5 19.7238 3.72386 19.5 4 19.5ZM4 15.5H7C7.27614 15.5 7.5 15.7238 7.5 16C7.5 16.2762 7.27614 16.5 7 16.5H4C3.72386 16.5 3.5 16.2762 3.5 16C3.5 15.7238 3.72386 15.5 4 15.5ZM4 11.5H7C7.27614 11.5 7.5 11.7238 7.5 12C7.5 12.2762 7.27614 12.5 7 12.5H4C3.72386 12.5 3.5 12.2762 3.5 12C3.5 11.7238 3.72386 11.5 4 11.5ZM4 7.5H7C7.27614 7.5 7.5 7.72386 7.5 8C7.5 8.27614 7.27614 8.5 7 8.5H4C3.72386 8.5 3.5 8.27614 3.5 8C3.5 7.72386 3.72386 7.5 4 7.5ZM4 3.5H7C7.27614 3.5 7.5 3.72386 7.5 4C7.5 4.27614 7.27614 4.5 7 4.5H4C3.72386 4.5 3.5 4.27614 3.5 4C3.5 3.72386 3.72386 3.5 4 3.5Z" fill="#005EEB" stroke="#005EEB"/>
</svg>
