<svg width="24" height="24" viewBox="0 0 24 24" fill="none" xmlns="http://www.w3.org/2000/svg">
<path d="M11.0065 21H9.60546C6.02021 21 4.22759 21 3.11379 19.8651C2 18.7301 2 16.9034 2 13.25C2 9.59662 2 7.76992 3.11379 6.63496C4.22759 5.5 6.02021 5.5 9.60546 5.5H13.4082C16.9934 5.5 18.7861 5.5 19.8999 6.63496C20.7568 7.50819 20.9544 8.7909 21 11" stroke="#E80000" strokeWidth="1.5" strokeLinecap="round"/>
<path d="M20.0169 20.0233L22 22M21.053 17.5265C21.053 15.5789 19.4741 14 17.5265 14C15.5788 14 14 15.5789 14 17.5265C14 19.4742 15.5788 21.0531 17.5265 21.0531C19.4741 21.0531 21.053 19.4742 21.053 17.5265Z" stroke="#E80000" strokeWidth="1.5" strokeLinecap="round"/>
<path d="M16 5.5L15.9006 5.19094C15.4056 3.65089 15.1581 2.88087 14.5688 2.44043C13.9796 2 13.1969 2 11.6315 2H11.3684C9.80304 2 9.02035 2 8.43111 2.44043C7.84186 2.88087 7.59435 3.65089 7.09934 5.19094L7 5.5" stroke="#E80000" strokeWidth="1.5" strokeLinecap="round"/>
</svg>
